<svg width="34" height="34" viewBox="0 0 34 34" fill="none" xmlns="http://www.w3.org/2000/svg">
<path d="M26.5425 18.2933C26.5626 17.0452 26.8992 15.8229 27.5206 14.7419C28.1419 13.6609 29.0275 12.7569 30.0935 12.1155C29.4049 11.1507 28.5035 10.3589 27.4599 9.80188C26.4162 9.24486 25.2585 8.93771 24.0772 8.90443C21.5476 8.63583 19.0943 10.3992 17.8055 10.3992C16.4912 10.3992 14.5058 8.92994 12.368 8.97292C10.9934 9.01317 9.65222 9.40771 8.47317 10.1187C7.29411 10.8296 6.31679 11.8331 5.63506 13.0328C2.72047 18.0153 4.89438 25.3372 7.68596 29.3649C9.08309 31.3364 10.7142 33.5402 12.8507 33.4623C14.9403 33.3764 15.7211 32.1462 18.244 32.1462C20.7428 32.1462 21.4754 33.4623 23.6547 33.4126C25.8968 33.3764 27.31 31.4317 28.6576 29.4414C29.6592 28.0398 30.4314 26.4866 30.9452 24.8403C29.6506 24.3073 28.542 23.4013 27.7592 22.2364C26.9764 21.0716 26.5545 19.7 26.5465 18.2946L26.5425 18.2933Z" fill="white"/>
<path d="M22.4513 6.07157C23.739 4.51915 24.3735 2.52368 24.2201 0.508911C22.2533 0.716425 20.4365 1.66056 19.1316 3.15325C18.4935 3.8826 18.0049 4.73117 17.6936 5.65041C17.3822 6.56965 17.2544 7.54152 17.3174 8.51044C18.3013 8.52065 19.2746 8.30646 20.1641 7.884C21.0537 7.46155 21.8361 6.84185 22.4527 6.07157H22.4513Z" fill="white"/>
</svg>
