<svg width="32" height="33" viewBox="0 0 32 33" fill="none" xmlns="http://www.w3.org/2000/svg">
<path d="M16 20.0195C18.2091 20.0195 20 18.2287 20 16.0195C20 13.8104 18.2091 12.0195 16 12.0195C13.7909 12.0195 12 13.8104 12 16.0195C12 18.2287 13.7909 20.0195 16 20.0195Z" fill="#2F3133"/>
<path d="M21.5 3.51953H10.5C8.64348 3.51953 6.86301 4.25703 5.55025 5.56978C4.2375 6.88254 3.5 8.66302 3.5 10.5195V21.5195C3.5 23.376 4.2375 25.1565 5.55025 26.4693C6.86301 27.782 8.64348 28.5195 10.5 28.5195H21.5C23.3565 28.5195 25.137 27.782 26.4497 26.4693C27.7625 25.1565 28.5 23.376 28.5 21.5195V10.5195C28.5 8.66302 27.7625 6.88254 26.4497 5.56978C25.137 4.25703 23.3565 3.51953 21.5 3.51953ZM16 22.0195C14.8133 22.0195 13.6533 21.6676 12.6666 21.0083C11.6799 20.3491 10.9108 19.412 10.4567 18.3156C10.0026 17.2193 9.88378 16.0129 10.1153 14.849C10.3468 13.6851 10.9182 12.616 11.7574 11.7769C12.5965 10.9378 13.6656 10.3663 14.8295 10.1348C15.9933 9.90331 17.1997 10.0221 18.2961 10.4763C19.3925 10.9304 20.3295 11.6994 20.9888 12.6861C21.6481 13.6728 22 14.8328 22 16.0195C22 17.6108 21.3679 19.137 20.2426 20.2622C19.1174 21.3874 17.5913 22.0195 16 22.0195ZM22.5 11.0195C22.2033 11.0195 21.9133 10.9316 21.6666 10.7667C21.42 10.6019 21.2277 10.3676 21.1142 10.0936C21.0007 9.81947 20.9709 9.51787 21.0288 9.2269C21.0867 8.93592 21.2296 8.66865 21.4393 8.45887C21.6491 8.24909 21.9164 8.10623 22.2074 8.04835C22.4983 7.99048 22.7999 8.02018 23.074 8.13371C23.3481 8.24724 23.5824 8.4395 23.7472 8.68618C23.912 8.93285 24 9.22286 24 9.51953C24 9.91736 23.842 10.2989 23.5607 10.5802C23.2794 10.8615 22.8978 11.0195 22.5 11.0195Z" fill="#2F3133"/>
</svg>
