<svg width="124" height="55" viewBox="0 0 124 55" fill="none" xmlns="http://www.w3.org/2000/svg">
<path d="M30.8831 24.7948C28.6072 22.3376 0.838296 0 0.838296 0C-0.49724 7.14804 1.95128 9.15843 3.28659 10.4987C4.35484 11.5709 19.806 23.6779 26.8771 30.6026C31.1561 35.7402 28.6575 41.7714 26.8771 44.0051C21.8919 50.4384 15.0077 48.3238 12.1887 46.4623C10.6308 45.4336 4.02826 39.6865 0.393156 36.8571C-3.17103 51.5999 22.2006 62.5454 32.2184 48.4727C40.648 35.3361 33.2076 27.304 30.9054 24.8188L30.8831 24.7948Z" fill="#FF4E02"/>
<path d="M5.51313 31.2697C-0.896359 26.4447 -0.421582 20.6221 0.616993 18.3138C0.972884 18.3138 21.0531 34.8437 21.9822 36.2253C24.2077 39.5346 20.2018 43.15 17.3086 40.9162L5.51313 31.2697Z" fill="#FF4E02"/>
<path d="M50.1111 25.746C52.3772 25.746 54.0351 26.2042 55.0848 27.1206C56.1345 28.037 56.6594 29.4866 56.6594 31.4694V32.0193C56.6594 33.8021 56.0762 35.1268 54.9098 35.9932C53.7601 36.8596 51.9856 37.2928 49.5863 37.2928H46.7621V44.4908H43.263V25.746H50.1111ZM49.9112 34.0437C50.9776 34.0437 51.794 33.8438 52.3605 33.4439C52.9437 33.044 53.2353 32.4691 53.2353 31.7194V31.4944C53.2353 30.7613 52.9604 30.2114 52.4105 29.8449C51.8607 29.4783 51.0276 29.295 49.9112 29.295H46.7621V34.0437H49.9112ZM62.9488 33.9687C63.0821 33.3356 63.457 32.6441 64.0735 31.8943C64.7067 31.1445 65.7897 30.7613 67.3226 30.7446H67.8225V34.5686H67.3226C66.1063 34.5352 65.0732 34.8018 64.2235 35.3684C63.3737 35.9182 62.9488 36.7846 62.9488 37.9676V44.4908H59.0499V30.9946H62.9488V33.9687ZM76.2815 44.7408C74.8819 44.7408 73.6489 44.4575 72.5825 43.891C71.5161 43.3078 70.6914 42.4914 70.1082 41.4417C69.525 40.392 69.2334 39.184 69.2334 37.8177C69.2334 36.3847 69.5333 35.1351 70.1332 34.0687C70.733 33.0023 71.5661 32.1859 72.6325 31.6194C73.6989 31.0362 74.9235 30.7446 76.3065 30.7446C77.6894 30.7446 78.8974 31.0362 79.9305 31.6194C80.9802 32.1859 81.7883 33.0023 82.3548 34.0687C82.9213 35.1351 83.2046 36.3681 83.2046 37.7677C83.2046 38.1343 83.1796 38.5175 83.1296 38.9174H73.1574C73.174 39.9504 73.4656 40.7419 74.0321 41.2917C74.6153 41.8249 75.4067 42.0915 76.4065 42.0915C77.1063 42.0915 77.7061 41.9332 78.206 41.6166C78.7058 41.2834 78.9974 40.8252 79.0807 40.242H82.9797C82.7131 41.8249 81.9883 42.9746 80.8053 43.6911C79.6389 44.3909 78.131 44.7408 76.2815 44.7408ZM79.5306 36.668C79.5306 35.7849 79.264 35.0268 78.7308 34.3936C78.1976 33.7438 77.3895 33.4189 76.3065 33.4189C75.3234 33.4189 74.557 33.7355 74.0071 34.3686C73.4739 34.9851 73.1907 35.7516 73.1574 36.668H79.5306ZM97.0014 40.442C97.0014 41.8582 96.4349 42.9329 95.3019 43.6661C94.1855 44.3825 92.6776 44.7408 90.7781 44.7408C88.9286 44.7408 87.4707 44.3825 86.4043 43.6661C85.3379 42.9496 84.7464 41.9166 84.6298 40.5669H88.3788C88.4621 41.1168 88.7203 41.55 89.1535 41.8666C89.5868 42.1665 90.1449 42.3164 90.8281 42.3164C91.4946 42.3164 92.0194 42.1748 92.4027 41.8916C92.8025 41.6083 93.0025 41.2417 93.0025 40.7919C93.0025 40.3586 92.7859 40.0254 92.3527 39.7921C91.9361 39.5589 91.1863 39.3589 90.1033 39.1923C88.2371 38.9757 86.8875 38.5675 86.0544 37.9676C85.238 37.3678 84.8297 36.4181 84.8297 35.1184C84.8297 34.2187 85.088 33.4439 85.6045 32.7941C86.121 32.1276 86.8209 31.6194 87.7039 31.2695C88.6037 30.9196 89.5868 30.7446 90.6531 30.7446C92.336 30.7446 93.694 31.0862 94.727 31.7693C95.7601 32.4525 96.3766 33.4772 96.5765 34.8435H92.8525C92.7359 34.377 92.4943 34.0187 92.1277 33.7688C91.7612 33.5189 91.2863 33.3939 90.7031 33.3939C90.0866 33.3939 89.5868 33.5272 89.2035 33.7938C88.837 34.0437 88.6537 34.3853 88.6537 34.8185C88.6537 35.2517 88.8703 35.5933 89.3035 35.8432C89.7367 36.0765 90.4449 36.2598 91.4279 36.3931C92.7442 36.5597 93.7939 36.7846 94.5771 37.0679C95.3768 37.3511 95.9767 37.7677 96.3766 38.3175C96.7931 38.8507 97.0014 39.5589 97.0014 40.442ZM103.519 40.242C103.519 41.2251 104.011 41.7166 104.994 41.7166H106.793V44.4908H103.994C102.611 44.4908 101.57 44.1826 100.87 43.5661C100.17 42.9496 99.8201 41.9499 99.8201 40.5669V33.4939H98.2706V30.9946H99.8201V28.0704H103.519V30.9946H106.743V33.4939H103.519V40.242ZM115.653 30.7446C117.069 30.7446 118.31 31.0445 119.377 31.6444C120.46 32.2275 121.285 33.0357 121.851 34.0687C122.434 35.1018 122.743 36.2598 122.776 37.5428V37.8927C122.776 38.7924 122.576 39.7588 122.176 40.7919C121.793 41.8249 121.068 42.7413 120.002 43.5411C118.935 44.3242 117.477 44.7158 115.628 44.7158C114.195 44.7158 112.937 44.4325 111.854 43.866C110.788 43.2995 109.963 42.4997 109.38 41.4667C108.796 40.4336 108.505 39.2423 108.505 37.8927V37.4928C108.522 36.1598 108.83 34.9851 109.43 33.9687C110.046 32.9523 110.888 32.1609 111.954 31.5944C113.02 31.0279 114.253 30.7446 115.653 30.7446ZM118.752 37.4928C118.719 36.3098 118.427 35.3517 117.877 34.6186C117.327 33.8854 116.586 33.5189 115.653 33.5189C114.62 33.5189 113.845 33.9104 113.329 34.6935C112.829 35.46 112.562 36.3931 112.529 37.4928V37.8927C112.529 39.1423 112.804 40.1254 113.354 40.8418C113.903 41.5417 114.67 41.8916 115.653 41.8916C116.653 41.8916 117.419 41.55 117.952 40.8668C118.485 40.1837 118.752 39.1923 118.752 37.8927V37.4928Z" fill="#FF4E02"/>
</svg>
