<svg width="32" height="33" viewBox="0 0 32 33" fill="none" xmlns="http://www.w3.org/2000/svg">
<path d="M30 7.72263C28.9844 8.18706 27.9102 8.49572 26.8106 8.6391C27.9694 7.91836 28.8358 6.77708 29.2457 5.43146C28.1607 6.10614 26.9735 6.58125 25.7357 6.83624C24.9767 5.98661 23.9916 5.39593 22.9083 5.14094C21.8249 4.88595 20.6935 4.97843 19.661 5.40638C18.6284 5.83432 17.7425 6.57795 17.1183 7.54064C16.4941 8.50333 16.1605 9.64058 16.1608 10.8046C16.1608 11.2647 16.1979 11.707 16.2891 12.128C14.087 12.0149 11.9325 11.4157 9.96651 10.3696C8.00048 9.32359 6.26716 7.85429 4.87987 6.05777C4.16913 7.33491 3.9494 8.84806 4.26543 10.2891C4.58145 11.7301 5.40947 12.9907 6.58087 13.8141C5.70465 13.7895 4.84692 13.5443 4.08 13.0994V13.163C4.08147 14.5031 4.52325 15.8018 5.33097 16.8403C6.1387 17.8789 7.26305 18.594 8.51475 18.8653C8.04121 18.9962 7.55319 19.0604 7.0635 19.0564C6.71181 19.0629 6.36046 19.0297 6.01556 18.9573C6.37321 20.1091 7.06264 21.1164 7.98891 21.8404C8.91519 22.5644 10.0328 22.9695 11.1878 23C9.22846 24.6066 6.81202 25.4781 4.32469 25.4752C3.87075 25.4752 3.43537 25.454 3 25.3956C5.53105 27.1056 8.48045 28.0102 11.4915 27.9999C21.6772 27.9999 27.246 19.1537 27.246 11.4858C27.246 11.2293 27.2376 10.9816 27.2257 10.7356C28.3175 9.91647 29.2576 8.89543 30 7.72263V7.72263Z" fill="#2F3133"/>
</svg>
